<svg width="40" height="40" viewBox="0 0 40 40" fill="none" xmlns="http://www.w3.org/2000/svg">
<path d="M0 15.625C0 10.1557 0 7.42111 1.06439 5.33212C2.00065 3.4946 3.4946 2.00065 5.33212 1.06439C7.42111 0 10.1557 0 15.625 0H24.375C29.8443 0 32.5789 0 34.6679 1.06439C36.5054 2.00065 37.9993 3.4946 38.9356 5.33212C40 7.42111 40 10.1557 40 15.625V24.375C40 29.8443 40 32.5789 38.9356 34.6679C37.9993 36.5054 36.5054 37.9993 34.6679 38.9356C32.5789 40 29.8443 40 24.375 40H15.625C10.1557 40 7.42111 40 5.33212 38.9356C3.4946 37.9993 2.00065 36.5054 1.06439 34.6679C0 32.5789 0 29.8443 0 24.375V15.625Z" fill="url(#paint0_linear_17434_184955)"/>
<path d="M13.1643 29.113C13.2513 28.9926 13.2868 28.8502 13.2651 28.7123C13.2434 28.5744 13.1644 28.441 13.0493 28.3577C12.9341 28.2745 12.7826 28.2414 12.6449 28.264C12.5071 28.2866 12.3831 28.3649 12.2961 28.4852L10.2293 31.344C10.1423 31.4643 10.1068 31.6067 10.1286 31.7446C10.1503 31.8825 10.2292 32.0159 10.3444 32.0991C10.4596 32.1824 10.611 32.2155 10.7488 32.1929C10.8865 32.1703 11.0106 32.092 11.0976 31.9717L13.1643 29.113Z" fill="white"/>
<path d="M15.5828 29.8019C15.7425 29.5518 15.6686 29.2187 15.4189 29.0593C15.1691 28.8998 14.8359 28.9731 14.6762 29.2231L11.5435 34.1308C11.3839 34.3808 11.4577 34.7139 11.7075 34.8734C11.9573 35.0328 12.2905 34.9595 12.4501 34.7095L15.5828 29.8019Z" fill="white"/>
<path d="M17.2896 30.556C17.5452 30.7059 17.6329 31.0338 17.4787 31.2966L15.5352 34.6107C15.381 34.8735 15.0521 34.9571 14.7965 34.8072C14.5409 34.6573 14.4532 34.3294 14.6074 34.0666L16.5509 30.7525C16.7051 30.4897 17.034 30.4061 17.2896 30.556Z" fill="white"/>
<path d="M24.8458 33.1602C30.1724 31.1009 33.9504 25.93 33.9504 19.8767C33.9504 12.0142 27.5765 5.64032 19.714 5.64032C11.8514 5.64032 5.47754 12.0142 5.47754 19.8767C5.47754 20.5172 5.51983 21.1477 5.60177 21.7658L20.9017 14.1635C22.0572 13.5894 23.4263 14.3681 23.5235 15.6546L24.8458 33.1602Z" fill="white"/>
<path d="M32.5368 19.8767C32.5368 26.9586 26.7958 32.6996 19.714 32.6996C19.188 32.6996 18.6694 32.668 18.16 32.6064L17.3983 33.9258C18.1519 34.0491 18.9255 34.1132 19.714 34.1132C27.5765 34.1132 33.9504 27.7393 33.9504 19.8767C33.9504 12.0142 27.5765 5.64032 19.714 5.64032C11.8514 5.64032 5.47754 12.0142 5.47754 19.8767C5.47754 23.9707 7.20564 27.6611 9.9722 30.2582L10.7003 28.9971C8.34842 26.6725 6.89108 23.4448 6.89108 19.8767C6.89108 12.7949 12.6321 7.05387 19.714 7.05387C26.7958 7.05387 32.5368 12.7949 32.5368 19.8767Z" fill="white"/>
<path d="M18.3004 25.0837C19.583 25.0837 20.6227 24.044 20.6227 22.7615C20.6227 21.4789 19.583 20.4392 18.3004 20.4392C17.0179 20.4392 15.9782 21.4789 15.9782 22.7615C15.9782 24.044 17.0179 25.0837 18.3004 25.0837Z" fill="white"/>
<defs>
<linearGradient id="paint0_linear_17434_184955" x1="0" y1="0" x2="41.4844" y2="40" gradientUnits="userSpaceOnUse">
<stop stop-color="#FF951A"/>
<stop offset="1" stop-color="#EE5601"/>
</linearGradient>
</defs>
</svg>
